<?xml version="1.0" encoding="UTF-8" standalone="no"?>
<svg
   xmlns:dc="http://purl.org/dc/elements/1.1/"
   xmlns:cc="http://creativecommons.org/ns#"
   xmlns:rdf="http://www.w3.org/1999/02/22-rdf-syntax-ns#"
   xmlns:svg="http://www.w3.org/2000/svg"
   xmlns="http://www.w3.org/2000/svg"
   xmlns:sodipodi="http://sodipodi.sourceforge.net/DTD/sodipodi-0.dtd"
   xmlns:inkscape="http://www.inkscape.org/namespaces/inkscape"
   x="0px"
   y="0px"
   viewBox="0 0 999.99988 273.62385"
   class="logo"
   version="1.1"
   id="svg6137"
   sodipodi:docname="A.svg"
   width="999.99994"
   height="273.62387"
   inkscape:version="0.92.4 (5da689c313, 2019-01-14)">
  <metadata
     id="metadata6143">
    <rdf:RDF>
      <cc:Work
         rdf:about="">
        <dc:format>image/svg+xml</dc:format>
        <dc:type
           rdf:resource="http://purl.org/dc/dcmitype/StillImage" />
        <dc:title></dc:title>
      </cc:Work>
    </rdf:RDF>
  </metadata>
  <defs
     id="defs6141">
    <clipPath
       clipPathUnits="userSpaceOnUse"
       id="clipPath9930">
      <path
         d="m 27.638,117.638 h 68.031 v 68.031 H 27.638 Z"
         id="path9928"
         inkscape:connector-curvature="0" />
    </clipPath>
    <clipPath
       clipPathUnits="userSpaceOnUse"
       id="clipPath10295">
      <path
         d="M 0,0 H 612 V 792 H 0 Z"
         id="path10293"
         inkscape:connector-curvature="0" />
    </clipPath>
    <clipPath
       clipPathUnits="userSpaceOnUse"
       id="clipPath10275">
      <path
         d="M 0,0 H 612 V 792 H 0 Z"
         id="path10273"
         inkscape:connector-curvature="0" />
    </clipPath>
    <clipPath
       clipPathUnits="userSpaceOnUse"
       id="clipPath11893">
      <path
         d="M 0,841.89 H 595.28 V 0 H 0 Z"
         id="path11891"
         inkscape:connector-curvature="0" />
    </clipPath>
    <clipPath
       clipPathUnits="userSpaceOnUse"
       id="clipPath11881">
      <path
         d="M 0,841.89 H 595.28 V 0 H 0 Z"
         id="path11879"
         inkscape:connector-curvature="0" />
    </clipPath>
    <clipPath
       clipPathUnits="userSpaceOnUse"
       id="clipPath12998">
      <path
         d="M 0,0 H 595.276 V 841.89 H 0 Z"
         id="path12996"
         inkscape:connector-curvature="0" />
    </clipPath>
    <clipPath
       clipPathUnits="userSpaceOnUse"
       id="clipPath12970">
      <path
         d="M 0,0 H 595.276 V 841.89 H 0 Z"
         id="path12968"
         inkscape:connector-curvature="0" />
    </clipPath>
    <clipPath
       clipPathUnits="userSpaceOnUse"
       id="clipPath13408">
      <path
         d="M 504.69035,798.29828 V 708.28304 H 250.99499 v 90.01524 z"
         id="path13406"
         inkscape:connector-curvature="0" />
    </clipPath>
    <linearGradient
       x1="0"
       y1="0"
       x2="1"
       y2="0"
       gradientUnits="userSpaceOnUse"
       gradientTransform="matrix(0,-90.015244,-90.015244,0,377.84267,798.29828)"
       spreadMethod="pad"
       id="linearGradient13416">
      <stop
         style="stop-opacity:1;stop-color:#d6bc9d"
         offset="0"
         id="stop13410" />
      <stop
         style="stop-opacity:1;stop-color:#977f62"
         offset="0.699997"
         id="stop13412" />
      <stop
         style="stop-opacity:1;stop-color:#977f62"
         offset="1"
         id="stop13414" />
    </linearGradient>
    <clipPath
       clipPathUnits="userSpaceOnUse"
       id="clipPath13380">
      <path
         d="m 420.331,798.26588 v -89.95007 h -89.91984 v 89.95007 z"
         id="path13378"
         inkscape:connector-curvature="0" />
    </clipPath>
    <linearGradient
       x1="0"
       y1="0"
       x2="1"
       y2="0"
       gradientUnits="userSpaceOnUse"
       gradientTransform="matrix(0,-89.950073,-89.950073,0,375.37108,798.26588)"
       spreadMethod="pad"
       id="linearGradient13388">
      <stop
         style="stop-opacity:1;stop-color:#ebe5db"
         offset="0"
         id="stop13382" />
      <stop
         style="stop-opacity:1;stop-color:#cdc2b2"
         offset="0.699997"
         id="stop13384" />
      <stop
         style="stop-opacity:1;stop-color:#cdc2b2"
         offset="1"
         id="stop13386" />
    </linearGradient>
    <clipPath
       clipPathUnits="userSpaceOnUse"
       id="clipPath13352">
      <path
         d="M 425.80543,803.69008 V 702.87521 H 324.88591 v 100.81487 z"
         id="path13350"
         inkscape:connector-curvature="0" />
    </clipPath>
    <linearGradient
       x1="0"
       y1="0"
       x2="1"
       y2="0"
       gradientUnits="userSpaceOnUse"
       gradientTransform="matrix(0,-100.81487,-100.81487,0,375.34567,803.69008)"
       spreadMethod="pad"
       id="linearGradient13360">
      <stop
         style="stop-opacity:1;stop-color:#c2ced2"
         offset="0"
         id="stop13354" />
      <stop
         style="stop-opacity:1;stop-color:#819099"
         offset="0.699997"
         id="stop13356" />
      <stop
         style="stop-opacity:1;stop-color:#819099"
         offset="1"
         id="stop13358" />
    </linearGradient>
    <clipPath
       clipPathUnits="userSpaceOnUse"
       id="clipPath13314">
      <path
         d="M 250.995,702.876 H 504.691 V 803.69 H 250.995 Z"
         id="path13312"
         inkscape:connector-curvature="0" />
    </clipPath>
    <clipPath
       clipPathUnits="userSpaceOnUse"
       id="clipPath13274">
      <path
         d="m 397.04682,774.86182 v -43.14749 h -43.1475 v 43.14749 z"
         id="path13272"
         inkscape:connector-curvature="0" />
    </clipPath>
    <linearGradient
       x1="0"
       y1="0"
       x2="1"
       y2="0"
       gradientUnits="userSpaceOnUse"
       gradientTransform="matrix(0,-43.147491,-43.147491,0,375.47307,774.86182)"
       spreadMethod="pad"
       id="linearGradient13284">
      <stop
         style="stop-opacity:1;stop-color:#67339b"
         offset="0"
         id="stop13276" />
      <stop
         style="stop-opacity:1;stop-color:#67339b"
         offset="0.15442009"
         id="stop13278" />
      <stop
         style="stop-opacity:1;stop-color:#3d1a61"
         offset="0.699997"
         id="stop13280" />
      <stop
         style="stop-opacity:1;stop-color:#3d1a61"
         offset="1"
         id="stop13282" />
    </linearGradient>
    <clipPath
       clipPathUnits="userSpaceOnUse"
       id="clipPath23913">
      <path
         d="M 0,841.89 H 1190.55 V 0 H 0 Z"
         id="path23911"
         inkscape:connector-curvature="0" />
    </clipPath>
    <clipPath
       clipPathUnits="userSpaceOnUse"
       id="clipPath24699">
      <path
         d="M 0,0 H 792 V 612 H 0 Z"
         id="path24697"
         inkscape:connector-curvature="0" />
    </clipPath>
    <clipPath
       clipPathUnits="userSpaceOnUse"
       id="clipPath24683">
      <path
         d="M 0,0 H 792 V 612 H 0 Z"
         id="path24681"
         inkscape:connector-curvature="0" />
    </clipPath>
    <clipPath
       clipPathUnits="userSpaceOnUse"
       id="clipPath24655">
      <path
         d="M 0,0 H 792 V 612 H 0 Z"
         id="path24653"
         inkscape:connector-curvature="0" />
    </clipPath>
    <clipPath
       clipPathUnits="userSpaceOnUse"
       id="clipPath24699-5">
      <path
         d="M 0,0 H 792 V 612 H 0 Z"
         id="path24697-8"
         inkscape:connector-curvature="0" />
    </clipPath>
    <clipPath
       clipPathUnits="userSpaceOnUse"
       id="clipPath24683-8">
      <path
         d="M 0,0 H 792 V 612 H 0 Z"
         id="path24681-5"
         inkscape:connector-curvature="0" />
    </clipPath>
    <clipPath
       clipPathUnits="userSpaceOnUse"
       id="clipPath24655-5">
      <path
         d="M 0,0 H 792 V 612 H 0 Z"
         id="path24653-6"
         inkscape:connector-curvature="0" />
    </clipPath>
    <linearGradient
       x1="0"
       y1="0"
       x2="1"
       y2="0"
       gradientUnits="userSpaceOnUse"
       gradientTransform="matrix(0.3926,-0.38356,-0.3926,-0.38356,0.2977,0.711)"
       spreadMethod="pad"
       id="linearGradient25270">
      <stop
         style="stop-opacity:1;stop-color:#ed2b9f"
         offset="0"
         id="stop25262" />
      <stop
         style="stop-opacity:1;stop-color:#ed2b9f"
         offset="0.01685"
         id="stop25264" />
      <stop
         style="stop-opacity:1;stop-color:#ed2b9f"
         offset="0.2191"
         id="stop25266" />
      <stop
         style="stop-opacity:1;stop-color:#f8aad9"
         offset="1"
         id="stop25268" />
    </linearGradient>
    <linearGradient
       x1="0"
       y1="0"
       x2="1"
       y2="0"
       gradientUnits="userSpaceOnUse"
       gradientTransform="matrix(0.69067,-0.67477,-0.69067,-0.67477,0.1486,0.8549)"
       spreadMethod="pad"
       id="linearGradient25242">
      <stop
         style="stop-opacity:1;stop-color:#fbd5ec"
         offset="0"
         id="stop25236" />
      <stop
         style="stop-opacity:1;stop-color:#ed2b9f"
         offset="0.70225"
         id="stop25238" />
      <stop
         style="stop-opacity:1;stop-color:#ed2b9f"
         offset="1"
         id="stop25240" />
    </linearGradient>
    <clipPath
       clipPathUnits="userSpaceOnUse"
       id="clipPath26668">
      <path
         d="M 0,0 H 595.276 V 841.89 H 0 Z"
         id="path26666"
         inkscape:connector-curvature="0" />
    </clipPath>
  </defs>
  <sodipodi:namedview
     pagecolor="#ffffff"
     bordercolor="#666666"
     borderopacity="1"
     objecttolerance="10"
     gridtolerance="10"
     guidetolerance="10"
     inkscape:pageopacity="0"
     inkscape:pageshadow="2"
     inkscape:window-width="1920"
     inkscape:window-height="1017"
     id="namedview6139"
     showgrid="false"
     fit-margin-top="0"
     fit-margin-left="0"
     fit-margin-right="0"
     fit-margin-bottom="0"
     inkscape:zoom="0.32061965"
     inkscape:cx="764.22013"
     inkscape:cy="-425.79319"
     inkscape:window-x="1912"
     inkscape:window-y="-8"
     inkscape:window-maximized="1"
     inkscape:current-layer="svg6137" />
  <g
     id="g26642"
     transform="matrix(5.960655,0,0,-5.960655,452.49543,136.77222)">
    <path
       d="M 0,0 V 9.627 H -4.378 V 8.334 c -1.665,1.148 -3.64,1.762 -5.663,1.76 -5.573,-0.117 -9.997,-4.729 -9.88,-10.303 0.113,-5.409 4.471,-9.767 9.88,-9.88 2.023,-0.003 3.998,0.611 5.663,1.76 V -9.623 H 0 v 9.619 z m -10.041,-5.425 c -2.998,-0.017 -5.443,2.4 -5.46,5.399 -0.017,2.998 2.4,5.443 5.399,5.46 2.998,0.017 5.443,-2.4 5.46,-5.399 0,-0.012 0,-0.023 0,-0.035 0.007,-2.989 -2.41,-5.418 -5.399,-5.425 z"
       style="fill:#40734c;fill-opacity:1;fill-rule:nonzero;stroke:none"
       id="path26644"
       inkscape:connector-curvature="0" />
  </g>
  <g
     id="g26646"
     transform="matrix(5.960655,0,0,-5.960655,761.08093,136.77222)">
    <path
       d="M 0,0 V 0 9.627 H -4.374 V 8.334 c -1.664,1.148 -3.64,1.762 -5.662,1.76 -5.574,-0.117 -9.997,-4.729 -9.881,-10.303 0.113,-5.409 4.471,-9.767 9.881,-9.88 2.022,-0.003 3.998,0.611 5.662,1.76 V -9.623 H 0 v 9.619 z m -10.036,-5.425 c -2.999,-0.017 -5.444,2.4 -5.461,5.399 -0.017,2.998 2.4,5.443 5.399,5.46 2.999,0.017 5.443,-2.4 5.46,-5.399 0,-0.012 0,-0.023 0,-0.035 0.008,-2.989 -2.409,-5.418 -5.398,-5.425"
       style="fill:#40734c;fill-opacity:1;fill-rule:nonzero;stroke:none"
       id="path26648"
       inkscape:connector-curvature="0" />
  </g>
  <g
     id="g26650"
     transform="matrix(5.960655,0,0,-5.960655,971.84015,126.54374)">
    <path
       d="m 0,0 h -10.582 c 0.923,2.922 4.039,4.543 6.961,3.621 C -1.896,3.076 -0.545,1.725 0,0 M 4.589,-3.428 C 5.493,2.068 1.771,7.256 -3.725,8.161 -9.221,9.065 -14.409,5.343 -15.313,-0.153 c -0.904,-5.496 2.818,-10.684 8.314,-11.588 4.824,-0.794 9.523,1.987 11.148,6.597 h -5.064 c -1.863,-2.426 -5.341,-2.883 -7.768,-1.02 -0.903,0.693 -1.571,1.649 -1.912,2.736 z"
       style="fill:#40734c;fill-opacity:1;fill-rule:nonzero;stroke:none"
       id="path26652"
       inkscape:connector-curvature="0" />
  </g>
  <g
     id="g26654"
     transform="matrix(5.960655,0,0,-5.960655,814.89849,194.13041)">
    <path
       d="M 0,0 H 9.689 V 4.374 H 2.042 L 8.906,19.092 H 4.074 -5.87 V 14.718 H 2.037 L -4.827,0 Z"
       style="fill:#40734c;fill-opacity:1;fill-rule:nonzero;stroke:none"
       id="path26656"
       inkscape:connector-curvature="0" />
  </g>
  <g
     id="g26658"
     transform="matrix(5.960655,0,0,-5.960655,501.802,164.23177)">
    <path
       d="m 0,0 v -0.004 l 2.416,-5.179 v 0.004 L 2.429,-5.205 4.844,-0.031 4.831,0 l 3.683,7.894 3.692,-7.916 -0.014,-0.022 2.412,-5.179 0.013,0.027 0.004,-0.005 2.411,5.175 v 0.004 l 6.644,14.256 H 18.85 L 14.617,5.157 10.428,14.234 H 6.604 l -4.188,-9.06 -4.224,9.06 h -4.827 z"
       style="fill:#40734c;fill-opacity:1;fill-rule:nonzero;stroke:none"
       id="path26660"
       inkscape:connector-curvature="0" />
  </g>
  <g
     id="g26662"
     transform="matrix(5.960655,0,0,-5.960655,-1274.115,4802.7852)">
    <g
       id="g26664"
       clip-path="url(#clipPath26668)">
      <g
         id="g26670"
         transform="translate(235.0991,802.4569)">
        <path
           d="m 0,0 c -0.003,1.123 -0.202,2.237 -0.59,3.291 -6.535,-0.654 -12.48,-4.069 -16.337,-9.385 3.326,-4.083 9.332,-4.696 13.415,-1.37 2.239,1.825 3.531,4.566 3.512,7.455"
           style="fill:#abc280;fill-opacity:1;fill-rule:nonzero;stroke:none"
           id="path26672"
           inkscape:connector-curvature="0" />
      </g>
      <g
         id="g26674"
         transform="translate(215.7655,773.3817)">
        <path
           d="M 0,0 C 5.227,0.864 8.764,5.801 7.9,11.027 7.233,15.065 4.078,18.234 0.044,18.92 -2.681,12.911 -2.697,6.022 0,0"
           style="fill:#abc280;fill-opacity:1;fill-rule:nonzero;stroke:none"
           id="path26676"
           inkscape:connector-curvature="0" />
      </g>
      <g
         id="g26678"
         transform="translate(234.4743,759.8429)">
        <path
           d="m 0,0 c 1.878,4.948 -0.61,10.482 -5.558,12.361 -1.074,0.407 -2.212,0.619 -3.361,0.623 -2.886,10e-4 -5.615,-1.31 -7.418,-3.564 C -12.487,4.091 -6.541,0.663 0,0"
           style="fill:#abc280;fill-opacity:1;fill-rule:nonzero;stroke:none"
           id="path26680"
           inkscape:connector-curvature="0" />
      </g>
      <g
         id="g26682"
         transform="translate(238.5795,763.2529)">
        <path
           d="M 0,0 C 0.002,-1.158 0.214,-2.305 0.625,-3.388 7.163,-2.707 13.099,0.733 16.94,6.068 13.623,10.158 7.618,10.784 3.529,7.467 1.28,5.643 -0.019,2.896 0,0"
           style="fill:#abc280;fill-opacity:1;fill-rule:nonzero;stroke:none"
           id="path26684"
           inkscape:connector-curvature="0" />
      </g>
      <g
         id="g26686"
         transform="translate(259.8755,782.8021)">
        <path
           d="M 0,0 C 0.003,3.283 -0.7,6.529 -2.059,9.517 -7.282,8.629 -10.796,3.676 -9.908,-1.547 -9.222,-5.581 -6.052,-8.736 -2.015,-9.403 -0.685,-6.44 0.001,-3.23 0,0.018"
           style="fill:#abc280;fill-opacity:1;fill-rule:nonzero;stroke:none"
           id="path26688"
           inkscape:connector-curvature="0" />
      </g>
      <g
         id="g26690"
         transform="translate(255.4799,796.3365)">
        <path
           d="M 0,0 C -3.848,5.317 -9.782,8.739 -16.311,9.407 -18.16,4.472 -15.659,-1.029 -10.723,-2.878 -6.901,-4.311 -2.591,-3.154 0,0"
           style="fill:#abc280;fill-opacity:1;fill-rule:nonzero;stroke:none"
           id="path26692"
           inkscape:connector-curvature="0" />
      </g>
    </g>
  </g>
</svg>
